<mxfile host="app.diagrams.net" modified="2024-11-06T16:50:27.717Z" agent="Mozilla/5.0 (Windows NT 10.0; Win64; x64) AppleWebKit/537.36 (KHTML, like Gecko) Chrome/130.0.0.0 Safari/537.36" version="24.4.0" etag="VmJQcz6N_Lj1C1ybXXG4" type="github">
  <diagram name="Page-1" id="c8AM1HEJsQWkok6TW38M">
    <mxGraphModel>
      <root>
        <mxCell id="0" />
        <mxCell id="1" parent="0" />
      </root>
    </mxGraphModel>
  </diagram>
</mxfile>
